<svg width="20" height="18" viewBox="0 0 20 18" fill="none" xmlns="http://www.w3.org/2000/svg">
<path d="M15 4V3C15 2.20435 14.6839 1.44129 14.1213 0.87868C13.5587 0.316071 12.7956 0 12 0H8C7.20435 0 6.44129 0.316071 5.87868 0.87868C5.31607 1.44129 5 2.20435 5 3V4H0V8C0 8.79565 0.316071 9.55871 0.87868 10.1213C1.44129 10.6839 2.20435 11 3 11H17C17.7956 11 18.5587 10.6839 19.1213 10.1213C19.6839 9.55871 20 8.79565 20 8V4H15ZM7 3C7 2.73478 7.10536 2.48043 7.29289 2.29289C7.48043 2.10536 7.73478 2 8 2H12C12.2652 2 12.5196 2.10536 12.7071 2.29289C12.8946 2.48043 13 2.73478 13 3V4H7V3ZM17 12C17.5695 11.9968 18.1317 11.872 18.6491 11.634C19.1664 11.396 19.627 11.0503 20 10.62V15C20 15.7956 19.6839 16.5587 19.1213 17.1213C18.5587 17.6839 17.7956 18 17 18H3C2.20435 18 1.44129 17.6839 0.87868 17.1213C0.316071 16.5587 0 15.7956 0 15V10.62C0.372999 11.0503 0.833583 11.396 1.35095 11.634C1.86831 11.872 2.43053 11.9968 3 12H17Z" fill="#666666"/>
</svg>
