<svg width="22" height="18" viewBox="0 0 22 18" fill="none" xmlns="http://www.w3.org/2000/svg">
<path d="M15 0H7C5.14348 2.76642e-08 3.36301 0.737498 2.05025 2.05025C0.737498 3.36301 0 5.14348 0 7C0 8.85652 0.737498 10.637 2.05025 11.9497C3.36301 13.2625 5.14348 14 7 14H11V18L19.16 12.61C20.0512 11.9738 20.7751 11.1311 21.2697 10.1541C21.7643 9.17716 22.0148 8.09493 22 7C22 5.14348 21.2625 3.36301 19.9497 2.05025C18.637 0.737498 16.8565 0 15 0ZM7 8.25C6.75277 8.25 6.5111 8.17669 6.30554 8.03934C6.09998 7.90199 5.93976 7.70676 5.84515 7.47835C5.75054 7.24995 5.72579 6.99861 5.77402 6.75614C5.82225 6.51366 5.9413 6.29093 6.11612 6.11612C6.29093 5.9413 6.51366 5.82225 6.75614 5.77402C6.99861 5.72579 7.24995 5.75054 7.47835 5.84515C7.70676 5.93976 7.90199 6.09998 8.03934 6.30554C8.17669 6.5111 8.25 6.75277 8.25 7C8.25 7.33152 8.1183 7.64946 7.88388 7.88388C7.64946 8.1183 7.33152 8.25 7 8.25ZM11 8.25C10.7528 8.25 10.5111 8.17669 10.3055 8.03934C10.1 7.90199 9.93976 7.70676 9.84515 7.47835C9.75054 7.24995 9.72579 6.99861 9.77402 6.75614C9.82225 6.51366 9.9413 6.29093 10.1161 6.11612C10.2909 5.9413 10.5137 5.82225 10.7561 5.77402C10.9986 5.72579 11.2499 5.75054 11.4784 5.84515C11.7068 5.93976 11.902 6.09998 12.0393 6.30554C12.1767 6.5111 12.25 6.75277 12.25 7C12.25 7.33152 12.1183 7.64946 11.8839 7.88388C11.6495 8.1183 11.3315 8.25 11 8.25ZM15 8.25C14.7528 8.25 14.5111 8.17669 14.3055 8.03934C14.1 7.90199 13.9398 7.70676 13.8452 7.47835C13.7505 7.24995 13.7258 6.99861 13.774 6.75614C13.8222 6.51366 13.9413 6.29093 14.1161 6.11612C14.2909 5.9413 14.5137 5.82225 14.7561 5.77402C14.9986 5.72579 15.2499 5.75054 15.4784 5.84515C15.7068 5.93976 15.902 6.09998 16.0393 6.30554C16.1767 6.5111 16.25 6.75277 16.25 7C16.25 7.33152 16.1183 7.64946 15.8839 7.88388C15.6495 8.1183 15.3315 8.25 15 8.25Z" fill="#666666"/>
</svg>
