<svg width="19" height="19" viewBox="0 0 19 19" fill="none" xmlns="http://www.w3.org/2000/svg">
<path d="M19 16.1334H11.134C11.3052 16.4216 11.3969 16.7499 11.3999 17.085C11.4029 17.4201 11.3171 17.75 11.1511 18.0412C10.9851 18.3324 10.7449 18.5745 10.4549 18.7429C10.1649 18.9113 9.83544 19 9.5 19C9.16456 19 8.8351 18.9113 8.5451 18.7429C8.2551 18.5745 8.0149 18.3324 7.84892 18.0412C7.68293 17.75 7.59707 17.4201 7.60008 17.085C7.60308 16.7499 7.69483 16.4216 7.866 16.1334H0V15.1844C0.0463874 14.1872 0.43946 13.2374 1.1115 12.4986L2.0615 11.3883H16.9765L17.9265 12.4986C18.5917 13.2385 18.9722 14.1903 19 15.1844V16.1334ZM15.3995 5.16269C15.2086 3.73446 14.5053 2.42396 13.4204 1.47449C12.3354 0.525029 10.9424 0.00110797 9.5 0C8.05761 0.00110797 6.66461 0.525029 5.57964 1.47449C4.49467 2.42396 3.79144 3.73446 3.6005 5.16269L2.85 10.4393H16.15L15.3995 5.16269Z" fill="black" fill-opacity="0.6"/>
</svg>
