<svg width="15" height="15" viewBox="0 0 15 15" fill="none" xmlns="http://www.w3.org/2000/svg">
<path d="M13.5792 11.4592L10.3192 8.1992C10.9684 7.03814 11.1757 5.68139 10.9028 4.37944C10.6298 3.07749 9.89508 1.91824 8.83418 1.11569C7.77328 0.313154 6.45786 -0.0784865 5.13076 0.0130744C3.80366 0.104635 2.55448 0.673216 1.61385 1.61385C0.673216 2.55448 0.104635 3.80366 0.0130744 5.13076C-0.0784865 6.45786 0.313154 7.77328 1.11569 8.83418C1.91824 9.89508 3.07749 10.6298 4.37944 10.9028C5.68139 11.1757 7.03814 10.9684 8.1992 10.3192L11.4592 13.5792C11.5965 13.7266 11.7621 13.8448 11.9461 13.9268C12.1301 14.0087 12.3287 14.0528 12.5302 14.0564C12.7316 14.0599 12.9316 14.0229 13.1184 13.9474C13.3052 13.872 13.4748 13.7597 13.6173 13.6173C13.7597 13.4748 13.872 13.3052 13.9474 13.1184C14.0229 12.9316 14.0599 12.7316 14.0564 12.5302C14.0528 12.3287 14.0087 12.1301 13.9268 11.9461C13.8448 11.7621 13.7266 11.5965 13.5792 11.4592ZM2.0192 5.5192C2.0192 4.82697 2.22447 4.15028 2.60906 3.5747C2.99364 2.99913 3.54027 2.55053 4.17981 2.28562C4.81935 2.02072 5.52308 1.9514 6.20202 2.08645C6.88095 2.2215 7.50459 2.55484 7.99407 3.04433C8.48356 3.53381 8.8169 4.15745 8.95195 4.83638C9.087 5.51532 9.01769 6.21905 8.75278 6.85859C8.48787 7.49813 8.03927 8.04476 7.4637 8.42934C6.88812 8.81393 6.21143 9.0192 5.5192 9.0192C4.59094 9.0192 3.7007 8.65045 3.04433 7.99407C2.38795 7.3377 2.0192 6.44746 2.0192 5.5192Z" fill="#5F6163"/>
</svg>
